<?xml version="1.0" standalone="no"?><!DOCTYPE svg PUBLIC "-//W3C//DTD SVG 1.1//EN" "http://www.w3.org/Graphics/SVG/1.1/DTD/svg11.dtd">
<svg class="icon" viewBox="0 0 1046 1024" version="1.1" xmlns="http://www.w3.org/2000/svg" width="49.03125" height="48"><path d="M925.638835 0H120.916505C54.431068 0 0 54.431068 0 120.916505v782.104854C0 969.568932 54.431068 1024 120.916505 1024h804.72233c66.547573 0 120.916505-54.431068 120.916505-120.916505V120.916505c0-66.485437-54.368932-120.916505-120.916505-120.916505M510.198058 729.972816H455.456311v-52.815534h54.803883v52.815534zM455.456311 605.203883h54.803883v52.815534H455.456311v-52.815534z m133.281553 124.768933h-54.803883v-52.815534h54.803883v52.815534zM533.933981 605.203883h54.803883v52.815534h-54.803883v-52.815534z m255.067961 175.782525c-37.405825 0-74.749515 0.062136-112.15534 0.186408 1.118447-2.796117 1.801942-5.778641 1.801942-8.947573v-165.281554c0-0.994175-0.062136-1.98835-0.186408-2.920388l64.497087 0.124272c9.941748 0 8.201942-8.201942 0.869903-14.601942l-204.116505-178.330097c-7.332039-6.4-19.883495-6.897087-27.526213-0.621359l-206.912622 170.066019c-7.642718 6.275728-20.504854 20.069903-10.687378 20.194175l67.417475 0.994175c-0.372816 1.67767-0.559223 3.35534-0.559223 5.157281v165.219418c0 3.666019 0.869903 7.145631 2.361165 10.252427-31.067961 0.062136-62.073786 0.124272-93.079611 0.124272C138.314563 782.539806 31.067961 690.88932 31.067961 577.801942c0-82.88932 57.6-154.221359 140.427185-186.469903-0.683495-6.151456-1.056311-12.365049-1.056311-18.640777 0-89.040777 70.959223-161.242718 158.508738-161.242718 43.12233 0 82.205825 17.52233 110.788349 45.918446 40.761165-73.133981 120.046602-122.718447 211.2-122.718446 132.784466 0 240.403883 105.320388 240.403884 235.184466 0 2.485437-0.062136 4.908738-0.124272 7.394174 81.273786 33.926214 137.506796 107.060194 137.506796 191.813593-0.124272 117.001942-107.370874 211.945631-239.720388 211.945631" fill="#ffffff"/></svg>
